REM MD5 26f316cce8f0991c123a62ef59dd10f9
FILE "Oracle no Houseki - Jewels of the Oracle (Japan) (En,Ja,Fr,De).bin" BINARY
  TRACK 01 MODE2/2352
    INDEX 01 00:00:00
  TRACK 02 AUDIO
    INDEX 00 61:54:64
    INDEX 01 61:56:64
  TRACK 03 AUDIO
    INDEX 00 62:14:48
    INDEX 01 62:16:48
REM LEADOUT 65:42:09
